# xmcd
#
# Track frame offsets:
# 150
# 20025
# 48418
# 70018
# 92485
# 114615
# 139520
# 161072
# 185122
# 203797
# 221536
# 244486
# 265111
# 287294
# 311258
#
# Disc length: 4481 seconds
#
#
# Revision: 0
# Processed by: cddbd v1.5.1PL0 Copyright (c) Steve Scherf et al.
# Submitted via: FreeRIP 2.941 
#
DISCID=d7117f0f
DTITLE=R.Kelly - Millenium Best 2000
DYEAR=2000
DGENRE=Soul
TTITLE0=Did you ever think
TTITLE1=If i could turn back the hands of time
TTITLE2=Satisfy you
TTITLE3=Home alone
TTITLE4=Gotham city
TTITLE5=I´m your angel
TTITLE6=Down Low (Nobody has to know
TTITLE7=I believe i can fly
TTITLE8=You remind me of something
TTITLE9=She´s got that vibe
TTITLE10=Bump´n Grind (Remix)
TTITLE11=Your Body´s callin
TTITLE12=Half on a baby
TTITLE13=Summer bunnies
TTITLE14=I can´t sleep baby
EXTD=
EXTT0=
EXTT1=
EXTT2=
EXTT3=
EXTT4=
EXTT5=
EXTT6=
EXTT7=
EXTT8=
EXTT9=
EXTT10=
EXTT11=
EXTT12=
EXTT13=
EXTT14=
PLAYORDER=
